<svg width="16" height="17" viewBox="0 0 16 17" fill="none" xmlns="http://www.w3.org/2000/svg">
<path fill-rule="evenodd" clip-rule="evenodd" d="M0.21875 8.79034C0.21875 4.43374 3.75308 0.899414 8.10968 0.899414C12.4663 0.899414 16.0006 4.43374 16.0006 8.79034C16.0006 13.1469 12.4663 16.6813 8.10968 16.6813C3.75308 16.6813 0.21875 13.1469 0.21875 8.79034ZM8.10968 2.39941C4.58151 2.39941 1.71875 5.26217 1.71875 8.79034C1.71875 12.3185 4.58151 15.1813 8.10968 15.1813C11.6379 15.1813 14.5006 12.3185 14.5006 8.79034C14.5006 5.26217 11.6379 2.39941 8.10968 2.39941Z" fill="#40DDB6"/>
<path fill-rule="evenodd" clip-rule="evenodd" d="M8.10938 3.27979C8.52359 3.27979 8.85938 3.61557 8.85938 4.02979V8.63548H11.6798C12.0941 8.63548 12.4298 8.97127 12.4298 9.38548C12.4298 9.7997 12.0941 10.1355 11.6798 10.1355H8.10938C7.69516 10.1355 7.35938 9.7997 7.35938 9.38548V4.02979C7.35938 3.61557 7.69516 3.27979 8.10938 3.27979Z" fill="#40DDB6"/>
</svg>
