<svg width="18" height="24" viewBox="0 0 18 24" fill="none" xmlns="http://www.w3.org/2000/svg">
<path fill-rule="evenodd" clip-rule="evenodd" d="M0 8.02211C0 3.54896 3.86082 0 8.51493 0C13.169 0 17.0299 3.54896 17.0299 8.02211C17.0299 10.5466 15.6408 13.6825 14.1076 16.4076C12.5528 19.171 10.7615 21.6613 9.80179 22.9371C9.65274 23.137 9.45894 23.2987 9.23661 23.4101C9.01249 23.5224 8.76525 23.5806 8.51493 23.5806C8.26461 23.5806 8.01737 23.5224 7.79325 23.4101C7.57014 23.2983 7.37575 23.1359 7.22649 22.935C6.2664 21.6581 4.47621 19.168 2.92225 16.4058C1.38911 13.6805 0 10.5448 0 8.02211ZM8.51493 1.5C4.59527 1.5 1.5 4.46834 1.5 8.02211C1.5 10.1175 2.6992 12.95 4.22957 15.6703C5.73831 18.3522 7.48578 20.784 8.42684 22.0354L8.43047 22.0403L8.43045 22.0403C8.43872 22.0514 8.45036 22.0616 8.46517 22.069C8.48001 22.0765 8.49711 22.0806 8.51493 22.0806C8.53275 22.0806 8.54985 22.0765 8.5647 22.069C8.5795 22.0616 8.59114 22.0514 8.59941 22.0403L8.60309 22.0353L8.60311 22.0353C9.54416 20.7844 11.2916 18.3536 12.8003 15.672C14.3306 12.9522 15.5299 10.1194 15.5299 8.02211C15.5299 4.46834 12.4346 1.5 8.51493 1.5Z" fill="#40DDB6"/>
<path fill-rule="evenodd" clip-rule="evenodd" d="M8.51515 6.93555C7.21398 6.93555 6.15918 7.99035 6.15918 9.29152C6.15918 10.5927 7.21398 11.6475 8.51515 11.6475C9.81632 11.6475 10.8711 10.5927 10.8711 9.29152C10.8711 7.99035 9.81632 6.93555 8.51515 6.93555ZM4.65918 9.29152C4.65918 7.16192 6.38556 5.43555 8.51515 5.43555C10.6447 5.43555 12.3711 7.16192 12.3711 9.29152C12.3711 11.4211 10.6447 13.1475 8.51515 13.1475C6.38556 13.1475 4.65918 11.4211 4.65918 9.29152Z" fill="#40DDB6"/>
</svg>
