<svg width="23" height="18" viewBox="0 0 23 18" fill="none" xmlns="http://www.w3.org/2000/svg">
<path fill-rule="evenodd" clip-rule="evenodd" d="M3.22151 1.77539C2.56361 1.77539 2.03027 2.30872 2.03027 2.96662V14.614C2.03027 15.2719 2.56361 15.8053 3.22151 15.8053H19.5279C20.1858 15.8053 20.7191 15.2719 20.7191 14.614V2.96662C20.7191 2.30872 20.1858 1.77539 19.5279 1.77539H3.22151ZM0.530273 2.96662C0.530273 1.4803 1.73518 0.275391 3.22151 0.275391H19.5279C21.0142 0.275391 22.2191 1.4803 22.2191 2.96662V14.614C22.2191 16.1003 21.0142 17.3053 19.5279 17.3053H3.22151C1.73518 17.3053 0.530273 16.1003 0.530273 14.614V2.96662Z" fill="#40DDB6"/>
<path fill-rule="evenodd" clip-rule="evenodd" d="M3.79376 3.67141C4.04807 3.34445 4.51927 3.28555 4.84623 3.53986L11.3742 8.61718L17.9022 3.53986C18.2292 3.28555 18.7004 3.34445 18.9547 3.67141C19.209 3.99838 19.1501 4.46958 18.8231 4.72388L11.8347 10.1593C11.5638 10.37 11.1846 10.37 10.9138 10.1593L3.92532 4.72388C3.59836 4.46958 3.53946 3.99838 3.79376 3.67141Z" fill="#40DDB6"/>
</svg>
