<svg width="15" height="15" viewBox="0 0 15 15" fill="none" xmlns="http://www.w3.org/2000/svg">
<path d="M6.62932 0.867261C7.01183 0.188616 7.98911 0.188614 8.37162 0.867259L9.97368 3.70959C10.1164 3.96277 10.3622 4.14134 10.647 4.19882L13.8453 4.84414C14.609 4.99821 14.911 5.92766 14.3837 6.50116L12.1756 8.90314C11.9789 9.11709 11.885 9.40602 11.9184 9.69473L12.293 12.9359C12.3824 13.7098 11.5918 14.2842 10.8834 13.96L7.91664 12.6022C7.65237 12.4812 7.34857 12.4812 7.08431 12.6022L4.11754 13.96C3.40918 14.2842 2.61855 13.7098 2.70799 12.9359L3.08258 9.69473C3.11594 9.40602 3.02206 9.11709 2.82537 8.90314L0.61722 6.50116C0.089994 5.92766 0.391988 4.99821 1.15562 4.84414L4.3539 4.19882C4.63878 4.14134 4.88456 3.96277 5.02727 3.70959L6.62932 0.867261Z" fill="#FFB342"/>
</svg>
