<svg width="42" height="41" viewBox="0 0 42 41" fill="none" xmlns="http://www.w3.org/2000/svg">
<path fill-rule="evenodd" clip-rule="evenodd" d="M8.375 10.3889V34.9123C8.375 37.1033 10.1512 38.8798 12.3425 38.8798H27.4109V40.8798H12.3425C9.0465 40.8798 6.375 38.2078 6.375 34.9123V10.3889H8.375Z" fill="#40DDB6"/>
<path fill-rule="evenodd" clip-rule="evenodd" d="M29.4974 2H4.02637V0H29.4974C32.7201 0 35.3326 2.61254 35.3326 5.83527V16.7142H33.3326V5.83527C33.3326 3.71711 31.6155 2 29.4974 2Z" fill="#40DDB6"/>
<path fill-rule="evenodd" clip-rule="evenodd" d="M4.17943 2C2.97583 2 2 2.97583 2 4.17943V8.54419H6.35885V4.17943C6.35885 2.97583 5.38303 2 4.17943 2ZM0 4.17943C0 1.87126 1.87126 0 4.17943 0C6.4876 0 8.35885 1.87126 8.35885 4.17943V10.5442H0V4.17943Z" fill="#40DDB6"/>
<path fill-rule="evenodd" clip-rule="evenodd" d="M33.5213 17.8552L36.0515 19.5442L39.035 20.139L39.6303 23.123L41.3194 25.6533L39.6303 28.1836L39.035 31.1676L36.0515 31.7624L33.5213 33.4514L30.991 31.7624L28.007 31.1676L27.4122 28.1836L25.7227 25.6533L27.4122 23.123L28.007 20.139L30.991 19.5442L33.5213 17.8552ZM33.5213 20.2599L31.7713 21.428L29.7074 21.8394L29.296 23.9034L28.1275 25.6533L29.296 27.4032L29.7074 29.4672L31.7713 29.8786L33.5213 31.0468L35.2713 29.8786L37.3348 29.4672L37.7466 27.4032L38.9147 25.6533L37.7466 23.9034L37.3348 21.8394L35.2713 21.428L33.5213 20.2599Z" fill="#40DDB6"/>
<path fill-rule="evenodd" clip-rule="evenodd" d="M30.8779 37.0766V30.1741H28.8779V40.8237L33.5211 37.7132L38.1639 40.8238V30.1741H36.1639V37.0764L33.5212 35.3058L30.8779 37.0766Z" fill="#40DDB6"/>
<path fill-rule="evenodd" clip-rule="evenodd" d="M25.9876 9.33521H13.999V7.33521H25.9876V9.33521Z" fill="#40DDB6"/>
<path fill-rule="evenodd" clip-rule="evenodd" d="M25.9876 15.4954H13.999V13.4954H25.9876V15.4954Z" fill="#40DDB6"/>
<path fill-rule="evenodd" clip-rule="evenodd" d="M25.9876 21.5889H13.999V19.5889H25.9876V21.5889Z" fill="#40DDB6"/>
<path fill-rule="evenodd" clip-rule="evenodd" d="M21.9472 27.55H13.999V25.55H21.9472V27.55Z" fill="#40DDB6"/>
<path fill-rule="evenodd" clip-rule="evenodd" d="M21.9472 33.6436H13.999V31.6436H21.9472V33.6436Z" fill="#40DDB6"/>
</svg>
