<svg width="41" height="35" viewBox="0 0 41 35" fill="none" xmlns="http://www.w3.org/2000/svg">
<path fill-rule="evenodd" clip-rule="evenodd" d="M19.9427 0.169741C20.2798 -0.0565802 20.7203 -0.0565802 21.0575 0.169741L38.9325 12.1697C39.2978 12.415 39.4599 12.8703 39.3317 13.2913C39.2035 13.7123 38.8151 14 38.3751 14H2.62508C2.18501 14 1.79666 13.7123 1.66845 13.2913C1.54025 12.8703 1.70233 12.415 2.0677 12.1697L19.9427 0.169741ZM5.90878 12H35.0914L20.5001 2.20444L5.90878 12Z" fill="white"/>
<path fill-rule="evenodd" clip-rule="evenodd" d="M8.125 12C8.67728 12 9.125 12.4477 9.125 13V28C9.125 28.5523 8.67728 29 8.125 29C7.57272 29 7.125 28.5523 7.125 28V13C7.125 12.4477 7.57272 12 8.125 12Z" fill="white"/>
<path fill-rule="evenodd" clip-rule="evenodd" d="M16.375 12C16.9273 12 17.375 12.4477 17.375 13V28C17.375 28.5523 16.9273 29 16.375 29C15.8227 29 15.375 28.5523 15.375 28V13C15.375 12.4477 15.8227 12 16.375 12Z" fill="white"/>
<path fill-rule="evenodd" clip-rule="evenodd" d="M24.625 12C25.1773 12 25.625 12.4477 25.625 13V28C25.625 28.5523 25.1773 29 24.625 29C24.0727 29 23.625 28.5523 23.625 28V13C23.625 12.4477 24.0727 12 24.625 12Z" fill="white"/>
<path fill-rule="evenodd" clip-rule="evenodd" d="M32.875 12C33.4273 12 33.875 12.4477 33.875 13V28C33.875 28.5523 33.4273 29 32.875 29C32.3227 29 31.875 28.5523 31.875 28V13C31.875 12.4477 32.3227 12 32.875 12Z" fill="white"/>
<path fill-rule="evenodd" clip-rule="evenodd" d="M3 28C3 27.4477 3.44772 27 4 27H37C37.5523 27 38 27.4477 38 28C38 28.5523 37.5523 29 37 29H4C3.44772 29 3 28.5523 3 28Z" fill="white"/>
<path fill-rule="evenodd" clip-rule="evenodd" d="M0.25 34C0.25 33.4477 0.697715 33 1.25 33H39.75C40.3023 33 40.75 33.4477 40.75 34C40.75 34.5523 40.3023 35 39.75 35H1.25C0.697715 35 0.25 34.5523 0.25 34Z" fill="white"/>
</svg>
