<svg width="32" height="33" viewBox="0 0 32 33" fill="none" xmlns="http://www.w3.org/2000/svg">
<g id="vuesax/bold/add-circle">
<g id="add-circle">
<path id="Vector" d="M15.9998 3.40918C8.65317 3.40918 2.6665 9.39585 2.6665 16.7425C2.6665 24.0892 8.65317 30.0758 15.9998 30.0758C23.3465 30.0758 29.3332 24.0892 29.3332 16.7425C29.3332 9.39585 23.3465 3.40918 15.9998 3.40918ZM21.3332 17.7425H16.9998V22.0758C16.9998 22.6225 16.5465 23.0758 15.9998 23.0758C15.4532 23.0758 14.9998 22.6225 14.9998 22.0758V17.7425H10.6665C10.1198 17.7425 9.6665 17.2892 9.6665 16.7425C9.6665 16.1958 10.1198 15.7425 10.6665 15.7425H14.9998V11.4092C14.9998 10.8625 15.4532 10.4092 15.9998 10.4092C16.5465 10.4092 16.9998 10.8625 16.9998 11.4092V15.7425H21.3332C21.8798 15.7425 22.3332 16.1958 22.3332 16.7425C22.3332 17.2892 21.8798 17.7425 21.3332 17.7425Z" fill="black"/>
</g>
</g>
</svg>
